{"title":"Rock N' Rolla_(2008)_1080p_mp4_Brrip","uid":7861288,"size":4212510512,"categoryP":"video","categoryS":"hd___movies","magnet":"?xt=urn:btih:212a1e90c9f3f34786388c8130017d04e73aa7cc&amp;dn=Rock+N%27+Rolla_%282008%29_1080p_mp4_Brrip&amp;tr=udp%3A%2F%2Ftracker.openbittorrent.com%3A80&amp;tr=udp%3A%2F%2Fopen.demonii.com%3A1337&amp;tr=udp%3A%2F%2Ftracker.coppersurfer.tk%3A6969&amp;tr=udp%3A%2F%2Fexodus.desync.com%3A6969","seeders":0,"leechers":0,"uploader":"Lobotomia_2040","files":-1,"time":1353938445,"description":"General\n\n      Rock N' Rolla..mp4\n      Format : MPEG-4\n      Format profile : Base Media\n      Codec ID : isom\n      File size : 3.92 GiB\n      Duration : 1h 54mn\n      Overall bit rate : 4 913 Kbps\n      Encoded date : UTC 2009-02-24 15:21:52\n      Tagged date : UTC 2009-02-24 15:21:52\n   \n\nVideo #1\n\n      ID : 1\n      Format : AVC\n      Format/Info : Advanced Video Codec\n      Format profile : &lt;a class=&quot;__cf_email__&quot; href=&quot;/cdn-cgi/l/email-protection&quot; data-cfemail=&quot;8dc5e4eae5cdc1b9a3bd&quot;&gt;[email&amp;#160;protected]&lt;/a&gt;&lt;script cf-hash='f9e31' type=&quot;text/javascript&quot;&gt;\n/* &lt;![CDATA[ */!function(){try{var t=&quot;currentScript&quot;in document?document.currentScript:function(){for(var t=document.getElementsByTagName(&quot;script&quot;),e=t.length;e--;)if(t[e].getAttribute(&quot;cf-hash&quot;))return t[e]}();if(t&amp;&amp;t.previousSibling){var e,r,n,i,c=t.previousSibling,a=c.getAttribute(&quot;data-cfemail&quot;);if(a){for(e=&quot;&quot;,r=parseInt(a.substr(0,2),16),n=2;a.length-n;n+=2)i=parseInt(a.substr(n,2),16)^r,e+=String.fromCharCode(i);e=document.createTextNode(e),c.parentNode.replaceChild(e,c)}}}catch(u){}}();/* ]]&gt; */&lt;/script&gt;\n      Format settings, CABAC : Yes\n      Format settings, ReFrames : 3 frames\n      Codec ID : avc1\n      Codec ID/Info : Advanced Video Coding\n      Duration : 1h 54mn\n      Bit rate mode : Variable\n      Bit rate : 4 647 Kbps\n      Maximum bit rate : 13.5 Mbps\n      Width : 1 920 pixels\n      Height : 1 080 pixels\n      Display aspect ratio : 16:9\n      Frame rate mode : Constant\n      Frame rate : 23.976 fps\n      Resolution : 24 bits\n      Colorimetry : 4:2:0\n      Scan type : Progressive\n      Bits/(Pixel*Frame) : 0.093\n      Stream size : 3.71 GiB (95%)\n      Writing library : x264 core 66 r1109M 75b495f\n      \n\nAudio #2\n\n      ID : 2\n      Format : AAC\n      Format/Info : Advanced Audio Codec\n      Format version : Version 4\n      Format profile : LC\n      Format settings, SBR : No\n      Codec ID : 40\n      Duration : 1h 54mn\n      Bit rate mode : Variable\n      Bit rate : 264.6 Kbps\n      Maximum bit rate : 278 Kbps\n      Channel(s) : 6 channels\n      Channel positions : Front: L C R, Rear: L R, LFE\n      Sampling rate : 48.0 KHz\n      Resolution : 16 bits\n      Stream size : 212 MiB (5%)\n      Encoded date : UTC 2009-02-24 15:27:21\n      Tagged date : UTC 2009-02-24 15:28:17","torrent":{"xt":"urn:btih:212a1e90c9f3f34786388c8130017d04e73aa7cc","amp;dn":"Rock+N%27+Rolla_%282008%29_1080p_mp4_Brrip","amp;tr":["udp%3A%2F%2Ftracker.openbittorrent.com%3A80","udp%3A%2F%2Fopen.demonii.com%3A1337","udp%3A%2F%2Ftracker.coppersurfer.tk%3A6969","udp%3A%2F%2Fexodus.desync.com%3A6969"],"infoHash":"212a1e90c9f3f34786388c8130017d04e73aa7cc","infoHashBuffer":{"type":"Buffer","data":[33,42,30,144,201,243,243,71,134,56,140,129,48,1,125,4,231,58,167,204]},"announce":[],"urlList":[]}}